# Blender v2.80 (sub 48) OBJ File: 'F15Asset.blend'
# www.blender.org
mtllib F15Asset.mtl
o F15Jet
v 2.098000 0.510000 1.000000
v 2.298000 0.210000 1.000000
v -1.902000 0.610000 1.000000
v 2.098000 0.260000 1.000000
v -0.897000 0.510000 1.000000
v -0.897000 0.210000 1.000000
v 2.591453 0.510000 1.000000
v 2.598000 0.210000 1.000000
v 3.898000 0.510000 1.000000
v 3.898000 0.210000 1.000000
v 2.298000 0.610000 0.500000
v 2.298000 0.210000 0.500000
v -1.902000 0.710000 0.600000
v -1.902000 0.010000 0.600000
v -0.897000 0.010000 0.500000
v -0.897000 0.710000 0.500000
v 2.591453 0.510000 0.500000
v 2.598000 0.210000 0.500000
v 3.698000 0.485969 0.450000
v 3.698000 0.234031 0.450000
v -2.902000 0.705842 0.400000
v -2.902000 0.060585 0.500000
v -3.902000 0.347500 0.140250
v -3.902000 0.172500 0.140250
v -3.402000 0.581215 0.220125
v -3.402000 0.091250 0.320125
v -2.402000 0.010000 0.550000
v -2.402000 0.753378 0.450000
v -1.399500 0.510000 1.000000
v -1.399500 0.210000 1.000000
v -1.399500 0.010000 0.550000
v -1.399500 0.710000 0.550000
v -0.897000 0.260000 1.000000
v 2.591453 0.260000 1.000000
v 3.898000 0.260000 1.000000
v 3.698000 0.260000 0.450000
v -1.902000 0.260000 0.600000
v -2.902000 0.360000 0.500000
v -3.902000 0.260000 0.140250
v -3.402000 0.310000 0.320125
v -2.402000 0.310000 0.550000
v -1.399500 0.260000 1.000000
v 2.598000 0.415001 2.700000
v 1.902999 0.415001 3.000000
v 1.902999 0.355001 3.000000
v 2.598000 0.355001 2.700000
v 3.698000 0.586184 0.250000
v 3.698000 0.563657 0.352890
v 3.698000 0.563656 0.147110
v 2.598000 0.510000 0.250000
v 2.598000 0.510000 0.375000
v 2.598000 0.510000 0.125000
v 2.598000 0.210000 0.250000
v 3.698000 0.120017 0.250000
v 2.598000 0.210000 0.125000
v 3.698000 0.154479 0.149441
v 2.598000 0.210000 0.375000
v 3.698000 0.154479 0.350560
v 3.498000 0.510001 2.000000
v 4.098000 0.510001 1.800000
v 3.498000 0.260001 2.000000
v 4.098000 0.260001 1.800000
v 3.998000 0.510000 1.600000
v 3.998000 0.260000 1.600000
v 4.198000 0.510000 1.000000
v 4.198000 0.260000 1.000000
v 4.048000 0.260000 1.300000
v 4.048000 0.510000 1.300000
v -2.902000 0.485000 0.450000
v -3.902000 0.303750 0.140250
v -3.402000 0.419375 0.270125
v -2.402000 0.460000 0.500000
v -3.652000 0.438125 0.180187
v -3.652000 0.361563 0.205187
v 2.591453 0.510000 0.937426
v 3.898000 0.510000 0.937426
v 2.591453 0.385000 1.000000
v 2.298000 0.520000 0.937426
v 3.905673 1.512171 1.035984
v 3.905673 1.512171 0.973410
v 3.099126 1.412171 0.973410
v 3.099126 1.412171 1.035984
v 3.905673 1.412171 0.973410
v 3.905673 1.412171 1.035984
v 3.099126 1.512171 1.035984
v 3.099126 1.512171 0.973410
v 2.999126 1.447171 0.995311
v 2.999126 1.447171 1.014083
v 2.999126 1.477171 0.995311
v 2.999126 1.477171 1.014083
v 2.098000 0.510000 -1.000000
v 2.298000 0.210000 -1.000000
v 2.298000 0.510000 -0.000000
v 2.298000 0.210000 0.000000
v -1.902000 0.610000 -1.000000
v 2.098000 0.260000 -1.000000
v -1.902000 0.710000 -0.000000
v -1.902000 0.010000 0.000000
v -0.897000 0.610000 -0.000000
v -0.897000 0.010000 0.000000
v -0.897000 0.510000 -1.000000
v -0.897000 0.210000 -1.000000
v 2.598000 0.510000 -0.000000
v 2.591453 0.510000 -1.000000
v 2.598000 0.210000 -1.000000
v 2.598000 0.210000 0.000000
v 3.698000 0.485969 0.050000
v 3.898000 0.510000 -1.000000
v 3.898000 0.210000 -1.000000
v 3.698000 0.234031 0.050000
v 2.298000 0.610000 -0.500000
v 2.298000 0.210000 -0.500000
v -1.902000 0.710000 -0.600000
v -1.902000 0.010000 -0.600000
v -0.897000 0.010000 -0.500000
v -0.897000 0.710000 -0.500000
v 2.591453 0.510000 -0.500000
v 2.598000 0.210000 -0.500000
v 3.698000 0.485969 -0.450000
v 3.698000 0.234031 -0.450000
v -2.902000 0.060585 0.000000
v -2.902000 0.705842 -0.000000
v -2.902000 0.705842 -0.400000
v -2.902000 0.060585 -0.500000
v -3.902000 0.172500 0.000000
v -3.902000 0.347500 -0.000000
v -3.902000 0.347500 -0.140250
v -3.902000 0.172500 -0.140250
v -3.402000 0.581215 -0.220125
v -3.402000 0.091250 -0.320125
v -3.402000 0.581215 -0.000000
v -3.402000 0.091250 0.000000
v -2.402000 0.010000 0.000000
v -2.402000 0.753378 -0.000000
v -2.402000 0.010000 -0.550000
v -2.402000 0.753378 -0.450000
v -1.399500 0.010000 0.000000
v -1.399500 0.510000 -1.000000
v -1.399500 0.610000 -0.000000
v -1.399500 0.210000 -1.000000
v -1.399500 0.010000 -0.550000
v -1.399500 0.710000 -0.550000
v -0.897000 0.260000 -1.000000
v 2.591453 0.260000 -1.000000
v 3.898000 0.260000 -1.000000
v 3.698000 0.260000 -0.450000
v -1.902000 0.260000 -0.600000
v -2.902000 0.360000 -0.500000
v -3.902000 0.260000 -0.000000
v -3.902000 0.260000 -0.140250
v -3.402000 0.310000 -0.320125
v -2.402000 0.310000 -0.550000
v -1.399500 0.260000 -1.000000
v 2.598000 0.415000 -2.700000
v 1.902999 0.415000 -3.000000
v 1.902999 0.355000 -3.000000
v 2.598000 0.355000 -2.700000
v 3.698000 0.586184 -0.250000
v 3.698000 0.563656 -0.352891
v 3.698000 0.563656 -0.147110
v 2.598000 0.510000 -0.250000
v 2.598000 0.510000 -0.375000
v 2.598000 0.510000 -0.125000
v 2.598000 0.210000 -0.250000
v 3.698000 0.120017 -0.250000
v 2.598000 0.210000 -0.125000
v 3.698000 0.154479 -0.149441
v 2.598000 0.210000 -0.375000
v 3.698000 0.154479 -0.350560
v 3.498000 0.510000 -2.000000
v 4.098000 0.510000 -1.800000
v 3.498000 0.260000 -2.000000
v 4.098000 0.260000 -1.800000
v 3.998000 0.510000 -1.600000
v 3.998000 0.260000 -1.600000
v 4.198000 0.510000 -1.000000
v 4.198000 0.260000 -1.000000
v 4.048000 0.260000 -1.300000
v 4.048000 0.510000 -1.300000
v -2.902000 0.485000 -0.450000
v -3.902000 0.303750 -0.140250
v -3.402000 0.419375 -0.270125
v -2.402000 0.460000 -0.500000
v -3.652000 0.438125 -0.180187
v -3.652000 0.438125 -0.000000
v -3.652000 0.361563 -0.205187
v 2.591453 0.510000 -0.937426
v 3.898000 0.510000 -0.937426
v 2.591453 0.385000 -1.000000
v 2.298000 0.520000 -0.937426
v 3.905673 1.512171 -1.035985
v 3.905673 1.512171 -0.973411
v 3.099126 1.412171 -0.973410
v 3.099126 1.412171 -1.035985
v 3.905673 1.412171 -0.973410
v 3.905673 1.412171 -1.035985
v 3.099126 1.512171 -1.035985
v 3.099126 1.512171 -0.973410
v 2.999126 1.447171 -0.995311
v 2.999126 1.447171 -1.014084
v 2.999126 1.477171 -0.995311
v 2.999126 1.477171 -1.014084
v 2.298000 0.510000 1.000000
v 2.298000 0.510000 -1.000000
v 3.898000 0.110000 0.125000
v 3.698000 0.234031 -0.050000
v 3.898000 0.610000 0.375000
v 3.898000 0.510000 0.500000
v 3.898000 0.260000 0.500000
v 3.898000 0.210000 0.500000
v 3.898000 0.610000 0.125000
v 3.898000 0.637369 0.250000
v 3.698000 0.485969 -0.050000
v 3.898000 0.110000 0.375000
v 3.898000 0.067162 0.250000
v 3.898000 0.110000 -0.125000
v 3.898000 0.210000 0.000000
v 3.898000 0.610000 -0.375000
v 3.898000 0.510000 -0.500000
v 3.898000 0.260000 -0.500000
v 3.898000 0.210000 -0.500000
v 3.898000 0.610000 -0.125000
v 3.898000 0.637369 -0.250000
v 3.898000 0.510000 -0.000000
v 3.898000 0.110000 -0.375000
v 3.898000 0.067162 -0.250000
v 3.898000 0.154479 0.149441
v 3.898000 0.234031 0.050000
v 3.898000 0.563657 0.352890
v 3.898000 0.485969 0.450000
v 3.898000 0.260000 0.450000
v 3.898000 0.234031 0.450000
v 3.898000 0.563656 0.147110
v 3.898000 0.586184 0.250000
v 3.898000 0.485969 0.050000
v 3.898000 0.154479 0.350560
v 3.898000 0.120017 0.250000
v 3.898000 0.154479 -0.149441
v 3.898000 0.234031 -0.050000
v 3.898000 0.563656 -0.352891
v 3.898000 0.485969 -0.450000
v 3.898000 0.260000 -0.450000
v 3.898000 0.234031 -0.450000
v 3.898000 0.563656 -0.147110
v 3.898000 0.586184 -0.250000
v 3.898000 0.485969 -0.050000
v 3.898000 0.154479 -0.350560
v 3.898000 0.120017 -0.250000
vt 0.875000 0.625000
vt 0.875000 0.500000
vt 0.875000 0.500000
vt 0.875000 0.531250
vt 0.875000 0.562500
vt 0.875000 0.593750
vt 0.875000 0.625000
vt 0.875000 0.750000
vt 0.625000 0.875000
vt 0.500000 0.875000
vt 0.500000 1.000000
vt 0.500000 1.000000
vt 0.875000 0.750000
vt 0.312500 0.625000
vt 0.375000 0.625000
vt 0.375000 0.750000
vt 0.312500 0.750000
vt 0.750000 0.625000
vt 0.875000 0.750000
vt 0.750000 0.750000
vt 0.687500 0.625000
vt 0.687500 0.750000
vt 0.125000 0.625000
vt 0.250000 0.625000
vt 0.250000 0.750000
vt 0.125000 0.750000
vt 0.125000 0.687500
vt 0.500000 0.812500
vt 0.625000 0.812500
vt 0.625000 0.875000
vt 0.500000 0.875000
vt 0.875000 0.500000
vt 0.875000 0.531250
vt 0.125000 0.687500
vt 0.125000 0.625000
vt 0.875000 0.750000
vt 0.500000 1.000000
vt 0.500000 1.000000
vt 0.625000 1.000000
vt 0.625000 1.000000
vt 0.500000 1.000000
vt 0.125000 0.625000
vt 0.375000 0.156250
vt 0.125000 0.593750
vt 0.500000 0.000000
vt 0.625000 0.000000
vt 0.625000 0.125000
vt 0.500000 0.125000
vt 0.125000 0.500000
vt 0.125000 0.562500
vt 0.125000 0.531250
vt 0.125000 0.500000
vt 0.875000 0.625000
vt 0.875000 0.750000
vt 0.250000 0.500000
vt 0.687500 0.500000
vt 0.750000 0.500000
vt 0.312500 0.500000
vt 0.375000 0.500000
vt 0.437500 0.625000
vt 0.375000 0.625000
vt 0.375000 0.625000
vt 0.437500 0.625000
vt 0.625000 0.500000
vt 0.625000 0.625000
vt 0.625000 0.625000
vt 0.625000 0.500000
vt 0.500000 0.500000
vt 0.625000 0.500000
vt 0.625000 0.625000
vt 0.500000 0.625000
vt 0.375000 0.500000
vt 0.375000 0.500000
vt 0.625000 0.500000
vt 0.625000 0.625000
vt 0.500000 0.625000
vt 0.375000 0.625000
vt 0.437500 0.625000
vt 0.500000 0.625000
vt 0.375000 0.500000
vt 0.625000 0.500000
vt 0.625000 0.625000
vt 0.468750 0.781250
vt 0.500000 0.625000
vt 0.500000 0.625000
vt 0.000000 0.000000
vt 0.000000 0.000000
vt 0.000000 0.000000
vt 0.000000 0.000000
vt 0.500000 0.000000
vt 0.375000 0.000000
vt 0.375000 0.000000
vt 0.500000 0.000000
vt 0.375000 1.000000
vt 0.437500 1.000000
vt 0.375000 1.000000
vt 0.375000 1.000000
vt 0.375000 0.812500
vt 0.375000 0.875000
vt 0.500000 1.000000
vt 0.500000 0.875000
vt 0.375000 0.875000
vt 0.375000 1.000000
vt 0.250000 0.750000
vt 0.125000 0.750000
vt 0.375000 0.187500
vt 0.375000 0.218750
vt 0.375000 0.250000
vt 0.875000 0.562500
vt 0.875000 0.593750
vt 0.375000 1.000000
vt 0.500000 1.000000
vt 0.500000 1.000000
vt 0.375000 1.000000
vt 0.250000 0.000000
vt 0.187500 0.000000
vt 0.375000 0.125000
vt 0.187500 0.062500
vt 0.437500 0.625000
vt 0.437500 0.625000
vt 0.125000 0.687500
vt 0.187500 0.062500
vt 0.000000 0.000000
vt 0.125000 0.687500
vt 0.125000 0.687500
vt 0.375000 1.000000
vt 0.125000 0.687500
vt 0.125000 0.687500
vt 0.375000 1.000000
vt 0.375000 1.000000
vt 0.125000 0.687500
vt 0.000000 0.000000
vt 0.000000 0.000000
vt 0.375000 1.000000
vt 0.125000 0.687500
vt 0.000000 0.000000
vt 0.375000 1.000000
vt 0.375000 1.000000
vt 0.125000 0.687500
vt 0.187500 0.062500
vt 0.000000 0.000000
vt 0.000000 0.000000
vt 0.000000 0.000000
vt 0.000000 0.000000
vt 0.000000 0.000000
vt 0.000000 0.000000
vt 0.125000 0.687500
vt 0.125000 0.687500
vt 0.875000 0.625000
vt 0.875000 0.625000
vt 0.875000 0.593750
vt 0.875000 0.562500
vt 0.875000 0.531250
vt 0.312500 0.625000
vt 0.312500 0.750000
vt 0.375000 0.750000
vt 0.375000 0.625000
vt 0.750000 0.625000
vt 0.750000 0.750000
vt 0.687500 0.625000
vt 0.687500 0.750000
vt 0.125000 0.625000
vt 0.125000 0.750000
vt 0.250000 0.750000
vt 0.250000 0.625000
vt 0.500000 0.812500
vt 0.625000 0.812500
vt 0.875000 0.531250
vt 0.125000 0.625000
vt 0.500000 1.000000
vt 0.625000 1.000000
vt 0.625000 1.000000
vt 0.125000 0.593750
vt 0.375000 0.156250
vt 0.125000 0.625000
vt 0.500000 0.000000
vt 0.500000 0.125000
vt 0.625000 0.125000
vt 0.625000 0.000000
vt 0.125000 0.531250
vt 0.125000 0.562500
vt 0.875000 0.750000
vt 0.875000 0.625000
vt 0.437500 0.625000
vt 0.437500 0.625000
vt 0.375000 0.625000
vt 0.375000 0.625000
vt 0.625000 0.625000
vt 0.625000 0.625000
vt 0.500000 0.625000
vt 0.625000 0.625000
vt 0.625000 0.625000
vt 0.500000 0.625000
vt 0.500000 0.625000
vt 0.437500 0.625000
vt 0.375000 0.625000
vt 0.625000 0.625000
vt 0.468750 0.781250
vt 0.500000 0.625000
vt 0.500000 0.625000
vt 0.000000 0.000000
vt 0.000000 0.000000
vt 0.000000 0.000000
vt 0.000000 0.000000
vt 0.500000 0.000000
vt 0.500000 0.000000
vt 0.375000 0.000000
vt 0.375000 0.000000
vt 0.375000 1.000000
vt 0.437500 1.000000
vt 0.375000 0.812500
vt 0.375000 0.875000
vt 0.500000 0.875000
vt 0.500000 1.000000
vt 0.375000 0.875000
vt 0.375000 1.000000
vt 0.125000 0.750000
vt 0.250000 0.750000
vt 0.375000 0.187500
vt 0.375000 0.218750
vt 0.875000 0.593750
vt 0.875000 0.562500
vt 0.375000 1.000000
vt 0.375000 1.000000
vt 0.500000 1.000000
vt 0.500000 1.000000
vt 0.250000 0.000000
vt 0.187500 0.000000
vt 0.375000 0.125000
vt 0.187500 0.062500
vt 0.437500 0.625000
vt 0.437500 0.625000
vt 0.125000 0.687500
vt 0.000000 0.000000
vt 0.187500 0.062500
vt 0.125000 0.687500
vt 0.375000 1.000000
vt 0.375000 1.000000
vt 0.000000 0.000000
vt 0.000000 0.000000
vt 0.125000 0.687500
vt 0.375000 1.000000
vt 0.375000 1.000000
vt 0.125000 0.687500
vt 0.187500 0.062500
vt 0.000000 0.000000
vt 0.000000 0.000000
vt 0.000000 0.000000
vt 0.000000 0.000000
vt 0.000000 0.000000
vt 0.125000 0.687500
vt 0.125000 0.687500
vt 0.802463 0.471025
vt 0.431329 0.277113
vt 0.401329 0.242391
vt 0.394102 0.222291
vt 0.367460 0.249221
vt 0.244355 0.486121
vt 0.558563 0.232426
vt 0.607284 0.232795
vt 0.792625 0.496659
vt 0.830216 0.529401
vt 0.825777 0.505065
vt 0.802463 0.471025
vt 0.825777 0.505064
vt 0.830216 0.529401
vt 0.792625 0.496659
vt 0.607284 0.232795
vt 0.558563 0.232426
vt 0.244355 0.486121
vt 0.367460 0.249221
vt 0.394102 0.222291
vt 0.401329 0.242391
vt 0.431329 0.277113
vt 0.802463 0.471025
vt 0.825777 0.505065
vt 0.244355 0.486121
vt 0.367460 0.249221
vt 0.558563 0.232426
vt 0.607284 0.232795
vt 0.394102 0.222291
vt 0.401329 0.242391
vt 0.431329 0.277113
vt 0.830216 0.529401
vt 0.792625 0.496659
vt 0.825777 0.505064
vt 0.802463 0.471025
vt 0.367460 0.249221
vt 0.244355 0.486121
vt 0.558563 0.232426
vt 0.607284 0.232795
vt 0.401329 0.242391
vt 0.394102 0.222291
vt 0.431329 0.277113
vt 0.792625 0.496659
vt 0.830216 0.529401
vt 0.375000 0.500000
vt 0.375000 0.625000
vt 0.375000 0.500000
vt 0.375000 0.625000
vt 0.375000 0.625000
vt 0.375000 0.625000
vn 0.0000 -1.0000 0.0000
vn -0.0000 0.0000 -1.0000
vn 0.1097 0.9373 0.3308
vn 0.0307 -0.9801 0.1960
vn 0.0193 -0.9215 0.3880
vn 0.0154 0.9576 0.2878
vn 0.0000 0.0000 1.0000
vn -0.0357 -0.9279 -0.3712
vn 0.1833 0.9779 0.1006
vn -0.0356 0.9282 0.3704
vn 1.0000 -0.0000 0.0000
vn 0.1641 0.9817 -0.0963
vn 0.0307 0.9801 -0.1960
vn 0.0625 -0.9980 0.0000
vn 0.0944 0.9918 -0.0862
vn -0.2568 0.1966 0.9462
vn -0.1007 -0.9949 0.0000
vn -1.0000 0.0000 0.0000
vn -0.3408 0.9401 -0.0000
vn -0.1604 -0.9871 0.0000
vn -0.0612 -0.9981 0.0000
vn -0.2002 0.1090 0.9737
vn 0.0864 0.9963 -0.0000
vn -0.0093 0.9823 -0.1871
vn 0.0990 0.0000 0.9951
vn 0.0193 0.9215 0.3880
vn -0.0995 0.0000 0.9950
vn -0.3385 0.0000 0.9410
vn 0.8944 -0.0000 -0.4472
vn 0.0039 -0.9988 0.0478
vn 0.3963 0.0000 0.9181
vn -0.5812 0.0000 0.8137
vn 0.0039 0.9988 0.0478
vn 0.9594 0.0000 -0.2822
vn -0.0866 0.9903 0.1084
vn -0.0866 0.9903 -0.1084
vn -0.0357 0.9279 -0.3712
vn -0.0917 -0.9815 0.1682
vn -0.0357 -0.9279 0.3712
vn -0.0917 -0.9815 -0.1682
vn 0.3162 0.0000 0.9487
vn -0.7409 0.0000 0.6716
vn 0.9864 0.0000 0.1644
vn 0.0000 1.0000 -0.0000
vn 0.8944 -0.0000 0.4472
vn -0.3522 0.3673 0.8609
vn -0.0682 0.3409 0.9376
vn -0.3269 0.2934 0.8984
vn 1.0000 -0.0085 -0.0000
vn 0.0000 0.0399 -0.9992
vn 0.0000 -0.0399 0.9992
vn 0.0170 0.9967 -0.0796
vn -0.8715 0.4904 -0.0000
vn 0.0170 0.9967 0.0796
vn -0.2139 -0.0000 0.9768
vn -0.3304 0.9439 0.0000
vn -0.3303 -0.9439 0.0000
vn -0.2139 0.0000 -0.9768
vn 0.1097 0.9373 -0.3308
vn 0.0307 -0.9801 -0.1960
vn 0.0193 -0.9215 -0.3880
vn 0.0154 0.9576 -0.2878
vn 0.1833 0.9779 -0.1006
vn -0.0356 0.9282 -0.3704
vn 0.1641 0.9817 0.0963
vn 0.0307 0.9801 0.1960
vn 0.0944 0.9918 0.0862
vn -0.2568 0.1966 -0.9462
vn -0.2002 0.1090 -0.9737
vn -0.0093 0.9823 0.1871
vn 0.0990 0.0000 -0.9951
vn 0.0193 0.9215 -0.3880
vn -0.0995 0.0000 -0.9950
vn -0.3385 0.0000 -0.9410
vn 0.0039 -0.9988 -0.0478
vn 0.3963 0.0000 -0.9181
vn -0.5812 0.0000 -0.8137
vn 0.0039 0.9988 -0.0478
vn 0.9594 0.0000 0.2822
vn -0.0357 0.9279 0.3712
vn 0.3162 0.0000 -0.9487
vn -0.7409 0.0000 -0.6716
vn 0.9864 0.0000 -0.1644
vn -0.3522 0.3673 -0.8609
vn -0.0682 0.3409 -0.9376
vn -0.3269 0.2934 -0.8984
vn 0.0000 0.0399 0.9992
vn -0.0000 -0.0399 -0.9992
vn -0.0000 0.9875 -0.1578
vn -0.0000 0.9875 0.1578
vn -0.3304 -0.9439 0.0000
vn 0.0000 0.7809 0.6247
vn 0.0000 -0.7809 -0.6247
vn 0.0000 -0.9769 0.2139
vn 0.0000 -0.9769 -0.2139
vn 0.0000 -0.7809 0.6247
vn 0.0000 0.9460 -0.3242
vn 0.0000 0.9460 0.3242
vn 0.0000 0.7809 -0.6247
vn -0.7341 -0.6743 0.0793
vn -0.0946 0.9955 -0.0000
vn -0.1019 0.1899 0.9765
vn -0.2419 0.9703 -0.0000
vn -0.3683 0.2351 0.8995
vn -0.4967 0.8679 -0.0000
vn -0.3053 0.2858 0.9084
vn -0.7341 -0.6743 -0.0793
vn -0.1019 0.1899 -0.9765
vn -0.3683 0.2351 -0.8995
vn -0.3053 0.2858 -0.9084
usemtl Base_Color
s off
f 12/1/1 94/2/1 106/3/1 55/4/1 53/5/1 57/6/1 18/7/1
f 92/8/2 102/9/2 143/10/2 96/11/2 144/12/2 105/13/2
f 32/14/3 13/15/3 3/16/3 29/17/3
f 15/18/4 12/1/4 2/19/4 6/20/4
f 31/21/5 15/18/5 6/20/5 30/22/5
f 11/23/6 16/24/6 5/25/6 1/26/6 78/27/6
f 42/28/7 30/29/7 6/30/7 33/31/7
f 55/4/8 106/3/8 217/32/8 205/33/8
f 11/23/9 78/27/9 75/34/9 17/35/9
f 2/19/7 8/36/7 34/37/7 4/38/7 33/31/7 6/30/7
f 34/37/7 8/39/7 10/40/7 35/41/7
f 17/35/10 208/42/10 207/43/10 51/44/10
f 35/45/11 10/46/11 210/47/11 209/48/11
f 93/49/12 11/23/12 17/35/12 51/44/12 50/50/12 52/51/12 103/52/12
f 8/36/1 18/7/1 210/53/1 10/54/1
f 93/49/13 99/55/13 16/24/13 11/23/13
f 137/56/1 100/57/1 15/18/1 31/21/1
f 100/57/14 94/2/14 12/1/14 15/18/14
f 139/58/15 97/59/15 13/15/15 32/14/15
f 2/19/1 12/1/1 18/7/1 8/36/1
f 74/60/16 73/61/16 23/62/16 70/63/16
f 133/64/17 27/65/17 22/66/17 121/67/17
f 149/68/18 125/69/18 24/70/18 39/71/18
f 73/61/19 185/72/19 126/73/19 23/62/19
f 132/74/20 26/75/20 24/70/20 125/69/20
f 121/67/21 22/66/21 26/75/21 132/74/21
f 37/76/22 13/15/22 28/77/22 72/78/22 41/79/22
f 13/15/23 97/59/23 134/80/23 28/77/23
f 98/81/1 14/82/1 27/65/1 133/64/1
f 99/55/24 139/58/24 32/14/24 16/24/24
f 13/15/25 37/76/25 14/82/25 31/21/25
f 137/56/1 31/21/1 14/82/1 98/81/1
f 3/16/7 30/29/7 42/83/7 29/17/7
f 16/24/26 32/14/26 29/17/26 5/25/26
f 14/82/27 37/76/27 41/79/27 27/65/27
f 22/66/28 38/84/28 40/85/28 26/75/28
f 126/73/18 149/68/18 39/71/18 70/63/18 23/62/18
f 27/65/27 41/79/27 38/84/27 22/66/27
f 26/75/28 40/85/28 39/71/28 24/70/28
f 35/86/2 9/87/2 65/88/2 66/89/2
f 64/90/29 63/91/29 60/92/29 62/93/29
f 1/94/7 4/38/7 34/37/7 77/95/7 7/96/7 203/97/7
f 29/98/7 42/28/7 33/31/7 5/99/7
f 33/31/30 4/38/30 46/100/30 45/101/30
f 44/102/31 45/101/31 46/100/31 43/103/31
f 5/99/32 33/31/32 45/101/32 44/102/32
f 1/26/33 5/25/33 44/104/33 43/105/33
f 4/38/34 1/94/34 43/103/34 46/100/34
f 207/43/35 212/106/35 50/50/35 51/44/35
f 212/106/36 211/107/36 52/51/36 50/50/36
f 103/52/37 52/51/37 211/107/37 224/108/37
f 57/6/38 53/5/38 215/109/38 214/110/38
f 18/7/39 57/6/39 214/110/39 210/53/39
f 53/5/40 55/4/40 205/33/40 215/109/40
f 59/111/41 61/112/41 62/113/41 60/114/41
f 7/96/42 77/95/42 34/37/42 61/112/42 59/111/42
f 67/115/43 68/116/43 63/91/43 64/90/43
f 7/96/44 59/111/44 60/114/44 63/91/44 68/116/44 65/88/44 9/87/44
f 35/86/1 66/89/1 67/115/1 64/90/1 62/93/1 61/112/1 34/37/1
f 208/117/11 76/118/11 9/87/11 35/45/11 209/48/11
f 66/89/45 65/88/45 68/116/45 67/115/45
f 38/84/46 69/119/46 71/120/46 40/85/46
f 41/79/47 72/78/47 69/119/47 38/84/47
f 40/85/48 71/120/48 74/60/48 70/63/48 39/71/48
f 17/35/44 75/34/44 76/121/44 208/42/44
f 9/87/49 76/118/49 83/122/49 84/123/49
f 76/121/50 75/34/50 81/124/50 83/125/50
f 7/96/51 9/87/51 84/123/51 82/126/51
f 190/127/52 187/128/52 104/129/52 204/130/52
f 104/129/53 187/128/53 193/131/53 194/132/53
f 203/97/54 7/96/54 75/34/54 78/27/54
f 82/126/7 84/123/7 79/133/7 85/134/7
f 79/133/44 80/135/44 86/136/44 85/134/44
f 82/126/55 85/134/55 90/137/55 88/138/55
f 83/125/2 81/124/2 86/139/2 80/135/2
f 84/123/11 83/122/11 80/140/11 79/133/11
f 87/141/18 88/142/18 90/143/18 89/144/18
f 85/134/56 86/136/56 89/144/56 90/137/56
f 81/145/57 82/146/57 88/142/57 87/141/57
f 86/139/58 81/124/58 87/147/58 89/148/58
f 112/149/1 118/150/1 168/151/1 164/152/1 166/153/1 106/3/1 94/2/1
f 142/154/59 138/155/59 95/156/59 113/157/59
f 115/158/60 102/159/60 92/8/60 112/149/60
f 141/160/61 140/161/61 102/159/61 115/158/61
f 111/162/62 190/127/62 91/163/62 101/164/62 116/165/62
f 153/166/2 143/10/2 102/9/2 140/167/2
f 166/153/39 216/168/39 217/32/39 106/3/39
f 111/162/63 117/169/63 187/128/63 190/127/63
f 144/12/2 145/170/2 109/171/2 105/172/2
f 117/169/64 162/173/64 218/174/64 219/175/64
f 145/176/11 220/177/11 221/178/11 109/179/11
f 93/49/65 103/52/65 163/180/65 161/181/65 162/173/65 117/169/65 111/162/65
f 105/13/1 109/182/1 221/183/1 118/150/1
f 93/49/66 111/162/66 116/165/66 99/55/66
f 137/56/1 141/160/1 115/158/1 100/57/1
f 100/57/14 115/158/14 112/149/14 94/2/14
f 139/58/67 142/154/67 113/157/67 97/59/67
f 92/8/1 105/13/1 118/150/1 112/149/1
f 186/184/68 181/185/68 127/186/68 184/187/68
f 133/64/17 121/67/17 124/188/17 135/189/17
f 149/68/18 150/190/18 128/191/18 125/69/18
f 184/187/19 127/186/19 126/73/19 185/72/19
f 132/74/20 125/69/20 128/191/20 130/192/20
f 121/67/21 132/74/21 130/192/21 124/188/21
f 147/193/69 152/194/69 183/195/69 136/196/69 113/157/69
f 113/157/23 136/196/23 134/80/23 97/59/23
f 98/81/1 133/64/1 135/189/1 114/197/1
f 99/55/70 116/165/70 142/154/70 139/58/70
f 113/157/71 141/160/71 114/197/71 147/193/71
f 137/56/1 98/81/1 114/197/1 141/160/1
f 95/156/2 138/155/2 153/198/2 140/167/2
f 116/165/72 101/164/72 138/155/72 142/154/72
f 114/197/73 135/189/73 152/194/73 147/193/73
f 124/188/74 130/192/74 151/199/74 148/200/74
f 126/73/18 127/186/18 181/185/18 150/190/18 149/68/18
f 135/189/73 124/188/73 148/200/73 152/194/73
f 130/192/74 128/191/74 150/190/74 151/199/74
f 145/201/7 177/202/7 176/203/7 108/204/7
f 175/205/45 173/206/45 171/207/45 174/208/45
f 91/209/2 204/130/2 104/129/2 189/210/2 144/12/2 96/11/2
f 138/211/2 101/212/2 143/10/2 153/166/2
f 143/10/75 156/213/75 157/214/75 96/11/75
f 155/215/76 154/216/76 157/214/76 156/213/76
f 101/212/77 155/215/77 156/213/77 143/10/77
f 91/163/78 154/217/78 155/218/78 101/164/78
f 96/11/79 157/214/79 154/216/79 91/209/79
f 218/174/36 162/173/36 161/181/36 223/219/36
f 223/219/35 161/181/35 163/180/35 222/220/35
f 103/52/80 224/108/80 222/220/80 163/180/80
f 168/151/40 225/221/40 226/222/40 164/152/40
f 118/150/8 221/183/8 225/221/8 168/151/8
f 164/152/38 226/222/38 216/168/38 166/153/38
f 170/223/81 171/224/81 173/225/81 172/226/81
f 104/129/82 170/223/82 172/226/82 144/12/82 189/210/82
f 178/227/83 175/205/83 174/208/83 179/228/83
f 104/129/44 108/204/44 176/203/44 179/228/44 174/208/44 171/224/44 170/223/44
f 145/201/1 144/12/1 172/226/1 173/206/1 175/205/1 178/227/1 177/202/1
f 219/229/11 220/177/11 145/176/11 108/204/11 188/230/11
f 177/202/29 178/227/29 179/228/29 176/203/29
f 148/200/84 151/199/84 182/231/84 180/232/84
f 152/194/85 148/200/85 180/232/85 183/195/85
f 151/199/86 150/190/86 181/185/86 186/184/86 182/231/86
f 117/169/44 219/175/44 188/233/44 187/128/44
f 108/204/49 196/234/49 195/235/49 188/230/49
f 188/233/87 195/236/87 193/131/87 187/128/87
f 104/129/88 194/237/88 196/234/88 108/204/88
f 204/130/89 91/209/89 190/127/89
f 1/94/90 203/97/90 78/27/90
f 7/96/53 82/146/53 81/124/53 75/34/53
f 194/237/2 197/238/2 191/239/2 196/234/2
f 191/239/44 197/238/44 198/240/44 192/241/44
f 194/237/58 200/242/58 202/243/58 197/238/58
f 195/236/7 192/241/7 198/244/7 193/131/7
f 196/234/11 191/239/11 192/245/11 195/235/11
f 199/246/18 201/247/18 202/248/18 200/249/18
f 197/238/56 202/243/56 201/247/56 198/240/56
f 193/250/91 199/246/91 200/249/91 194/132/91
f 198/244/55 201/251/55 199/252/55 193/131/55
f 110/253/11 107/254/11 49/255/11 47/256/11 48/257/11 19/258/11 36/259/11 20/260/11 58/261/11 54/262/11 56/263/11
f 206/264/11 167/265/11 165/266/11 169/267/11 120/268/11 146/269/11 119/270/11 159/271/11 158/272/11 160/273/11 213/274/11
f 228/275/11 227/276/11 205/33/11 217/32/11
f 230/277/11 229/278/11 207/43/11 208/42/11
f 231/279/11 230/277/11 208/42/11 209/48/11
f 232/280/11 231/279/11 209/48/11 210/47/11
f 234/281/11 233/282/11 211/107/11 212/106/11
f 229/278/11 234/281/11 212/106/11 207/43/11
f 233/282/11 235/283/11 224/108/11 211/107/11
f 237/284/11 236/285/11 214/110/11 215/109/11
f 227/276/11 237/284/11 215/109/11 205/33/11
f 236/285/11 232/280/11 210/47/11 214/110/11
f 235/283/11 228/275/11 217/32/11 224/108/11
f 238/286/11 239/287/11 217/32/11 216/168/11
f 240/288/11 241/289/11 219/175/11 218/174/11
f 241/289/11 242/290/11 220/177/11 219/175/11
f 242/290/11 243/291/11 221/178/11 220/177/11
f 244/292/11 245/293/11 223/219/11 222/220/11
f 245/293/11 240/288/11 218/174/11 223/219/11
f 246/294/11 244/292/11 222/220/11 224/108/11
f 247/295/11 248/296/11 226/222/11 225/221/11
f 248/296/11 238/286/11 216/168/11 226/222/11
f 243/291/11 247/295/11 225/221/11 221/178/11
f 239/287/11 246/294/11 224/108/11 217/32/11
f 110/253/92 56/263/92 227/276/92 228/275/92
f 19/258/93 48/257/93 229/278/93 230/277/93
f 36/259/2 19/258/2 230/277/2 231/279/2
f 20/260/2 36/259/2 231/279/2 232/280/2
f 47/256/94 49/255/94 233/282/94 234/281/94
f 48/257/95 47/256/95 234/281/95 229/278/95
f 49/255/96 107/254/96 235/283/96 233/282/96
f 54/262/97 58/261/97 236/285/97 237/284/97
f 56/263/98 54/262/98 237/284/98 227/276/98
f 58/261/99 20/260/99 232/280/99 236/285/99
f 107/254/7 110/253/7 228/275/7 235/283/7
f 167/265/99 206/264/99 239/287/99 238/286/99
f 159/271/96 119/270/96 241/289/96 240/288/96
f 119/270/7 146/269/7 242/290/7 241/289/7
f 146/269/7 120/268/7 243/291/7 242/290/7
f 160/273/95 158/272/95 245/293/95 244/292/95
f 158/272/94 159/271/94 240/288/94 245/293/94
f 213/274/93 160/273/93 244/292/93 246/294/93
f 169/267/98 165/266/98 248/296/98 247/295/98
f 165/266/97 167/265/97 238/286/97 248/296/97
f 120/268/92 169/267/92 247/295/92 243/291/92
f 206/264/2 213/274/2 246/294/2 239/287/2
usemtl Window
f 31/21/100 30/22/100 3/16/100 13/15/100
f 28/77/101 134/80/101 122/297/101 21/298/101
f 72/78/102 28/77/102 21/298/102 69/119/102
f 21/298/103 122/297/103 131/299/103 25/300/103
f 69/119/104 21/298/104 25/300/104 71/120/104
f 25/300/105 131/299/105 185/72/105 73/61/105
f 71/120/106 25/300/106 73/61/106 74/60/106
f 141/160/107 113/157/107 95/156/107 140/161/107
f 136/196/101 123/301/101 122/297/101 134/80/101
f 183/195/108 180/232/108 123/301/108 136/196/108
f 123/301/103 129/302/103 131/299/103 122/297/103
f 180/232/109 182/231/109 129/302/109 123/301/109
f 129/302/105 184/187/105 185/72/105 131/299/105
f 182/231/110 186/184/110 184/187/110 129/302/110
