# Blender v2.80 (sub 48) OBJ File: 'Su-27Asset.blend'
# www.blender.org
mtllib Su-27Asset.mtl
o Su27Jet
v 2.500000 0.308584 0.999999
v 2.516400 0.509707 0.957713
v -0.300000 0.308584 1.000000
v -0.300000 0.508584 1.000000
v -2.000000 0.608584 0.766149
v -1.815864 0.284946 0.719877
v -3.000000 0.608584 0.440792
v -3.000000 0.287042 0.440792
v -4.143912 0.422912 0.098752
v -4.143912 0.394255 0.098752
v 2.694424 0.386303 1.006006
v 2.694424 0.430864 1.006006
v 3.892841 0.386303 1.006005
v 3.109231 0.308584 0.516536
v 3.892841 0.430864 1.006005
v -3.666667 0.473533 0.239245
v -3.333333 0.558584 0.321600
v -3.666667 0.258584 0.239245
v -3.333333 0.258584 0.321600
v -2.666667 0.608584 0.536997
v -2.333333 0.608584 0.617771
v -2.666667 0.308584 0.536997
v -2.333333 0.308584 0.617771
v 2.012779 0.498693 0.542606
v -0.300000 0.508584 0.500000
v -2.000000 0.308584 0.456223
v -1.694683 0.708584 0.456223
v -3.000000 0.287042 0.335062
v -2.694684 0.808584 0.335062
v -4.143912 0.394255 0.091204
v -4.143912 0.422912 0.091204
v 2.900000 0.508584 0.499999
v 3.732441 0.386303 1.006006
v -3.333333 0.258584 0.267750
v -3.666667 0.258584 0.200439
v -3.333333 0.642115 0.267750
v -3.666667 0.578833 0.200439
v -2.333333 0.308584 0.415836
v -2.666666 0.308584 0.375449
v -2.028017 0.758584 0.415836
v -2.361350 0.778584 0.375449
v 2.500001 0.426371 3.999999
v 2.500001 0.390796 3.999999
v 1.400001 0.390796 4.000000
v 1.400001 0.426371 4.000000
v -0.363122 0.426371 1.501954
v 2.091479 0.426371 1.486835
v 2.091479 0.390796 1.486835
v -0.363122 0.390796 1.501954
v 2.500001 0.508584 4.099999
v 2.500001 0.308584 4.099999
v 1.400001 0.308584 4.099999
v 1.400001 0.508584 4.099999
v 1.200001 0.448584 4.030000
v 1.200001 0.368584 4.030000
v 1.200001 0.448584 4.070000
v 1.200001 0.368584 4.070000
v 2.500000 0.008584 0.649999
v -0.300000 0.008584 0.800000
v 2.500000 0.008584 0.799999
v -0.300000 0.008584 0.650000
v -1.600000 0.008584 0.456223
v -1.478899 0.032222 0.651832
v 3.493369 0.430864 2.204423
v 3.493369 0.386303 2.204423
v 4.159156 0.430864 1.938108
v 4.159156 0.386303 1.938108
v 3.772230 0.008584 0.799999
v 2.500000 0.008584 0.649999
v 3.109231 0.158584 0.516536
v 1.893409 0.008584 0.374999
v 3.772230 0.008584 0.649999
v 1.893409 0.508584 0.124999
v 1.893409 0.508584 0.374999
v 1.893409 0.508584 0.249999
v 3.109231 0.574463 0.249999
v 3.109231 0.546215 0.351535
v 3.109231 0.548274 0.155865
v 3.109231 0.466854 0.516536
v 3.109231 0.050313 0.516536
v 3.109231 -0.029467 0.350663
v 3.109231 -0.060641 0.249999
v 3.109231 -0.031731 0.156645
v 1.893409 0.008584 0.249999
v 1.893409 0.008584 0.124999
v 2.500000 0.008584 0.512499
v 3.693186 0.437616 0.963477
v 3.109231 0.158584 0.066375
v 3.109231 0.308584 0.066375
v 3.772230 0.308584 0.582912
v 3.109231 0.040486 0.066375
v 3.772230 0.158584 0.582912
v 3.772229 0.608584 0.124999
v 3.772229 0.643360 0.249999
v 3.772230 0.608584 0.374999
v 3.725387 0.501915 0.621193
v 3.109231 0.476682 0.066375
v 3.772230 0.008584 0.582912
v 3.772230 -0.091416 0.374999
v 3.772229 -0.130126 0.249999
v 3.772229 -0.091416 0.124999
v 3.772229 0.158584 0.066375
v 3.772229 0.308584 0.066375
v 3.772229 0.040486 0.066375
v 3.772229 0.476682 0.066375
v 3.772230 0.308584 0.516536
v 3.772230 0.158584 0.516536
v 3.772229 0.548274 0.155865
v 3.772229 0.574463 0.249999
v 3.772229 0.546215 0.351535
v 3.772230 0.466854 0.516536
v 3.772230 0.050313 0.516536
v 3.772229 -0.029467 0.350663
v 3.772229 -0.060641 0.249999
v 3.772229 -0.031731 0.156645
v 1.893409 0.508584 0.499999
v 2.500000 0.508584 0.999999
v 2.695507 0.435433 0.963117
v 2.897979 0.503938 0.542877
v 3.772230 0.508584 0.582912
v 3.732441 0.430864 1.006006
v 3.053488 1.503148 1.006006
v 3.497552 0.437616 0.963477
v 3.776084 1.373764 1.006006
v 3.054570 1.507718 0.963117
v 3.497552 0.430864 1.006006
v 3.776084 1.380517 0.963477
v 2.055635 0.308584 0.999999
v 2.055635 0.508584 0.999999
v -1.968482 0.284946 0.456223
v -2.000000 0.308584 0.766149
v -1.631517 0.032222 0.456223
v -1.815864 0.284946 0.039397
v -1.600000 0.008584 0.685375
v -1.478899 0.032222 0.039397
v -1.968482 0.284946 0.039397
v -1.631518 0.032222 0.039397
v -1.815864 0.284946 0.456223
v -1.968482 0.284946 0.719877
v -1.478899 0.032222 0.456223
v -1.631517 0.032222 0.651832
v 1.893409 0.508584 -0.000001
v 2.500000 0.308584 -1.000001
v 2.516399 0.509707 -0.957714
v -0.300000 0.617963 0.000000
v -0.300000 0.308584 -1.000000
v -0.300000 0.508584 -1.000000
v -2.000000 0.608584 -0.766148
v -1.815865 0.284946 -0.719876
v -2.000000 0.308584 0.000001
v -1.694684 0.817963 0.000001
v -3.000000 0.608584 -0.440790
v -3.000000 0.287042 -0.440790
v -3.000000 0.257042 0.000001
v -2.694684 0.917963 0.000001
v -4.143912 0.422912 -0.098750
v -4.143912 0.394255 -0.098750
v -4.143912 0.394255 0.000001
v -4.143912 0.422912 0.000001
v 2.694423 0.386303 -1.006008
v 2.694423 0.430864 -1.006008
v 3.892841 0.386303 -1.006008
v 3.772229 0.308584 -0.000001
v 3.109231 0.308584 -0.516538
v 3.892841 0.430864 -1.006008
v -3.333333 0.704324 0.000001
v -3.666667 0.618833 0.000001
v -3.666667 0.473533 -0.239242
v -3.333333 0.558584 -0.321598
v -3.666667 0.258584 -0.239242
v -3.333333 0.258584 -0.321598
v -3.333333 0.228584 0.000001
v -3.666667 0.228584 0.000001
v -2.028017 0.867963 0.000001
v -2.361350 0.887963 0.000001
v -2.666667 0.608584 -0.536996
v -2.333334 0.608584 -0.617770
v -2.666667 0.308584 -0.536996
v -2.333334 0.308584 -0.617770
v -2.333333 0.278584 0.000001
v -2.666667 0.278584 0.000001
v 2.012779 0.498693 -0.542608
v -0.300000 0.508584 -0.500000
v -2.000000 0.308584 -0.456222
v -1.694684 0.708584 -0.456222
v -3.000000 0.287042 -0.335060
v -2.694684 0.808584 -0.335060
v -4.143912 0.394255 -0.091201
v -4.143912 0.422912 -0.091201
v 2.900000 0.508584 -0.500001
v 3.772229 0.008584 -0.000001
v 3.732440 0.386303 -1.006008
v -3.333333 0.258584 -0.267748
v -3.666667 0.258584 -0.200436
v -3.333333 0.642115 -0.267748
v -3.666667 0.578833 -0.200436
v -2.333334 0.308584 -0.415834
v -2.666667 0.308584 -0.375447
v -2.028017 0.758584 -0.415835
v -2.361350 0.778584 -0.375447
v 2.499999 0.426371 -4.000001
v 2.499999 0.390796 -4.000001
v 1.399999 0.390796 -4.000000
v 1.399999 0.426371 -4.000000
v -0.363123 0.426371 -1.501954
v 2.091478 0.426371 -1.486837
v 2.091478 0.390796 -1.486837
v -0.363123 0.390796 -1.501954
v 2.499999 0.508584 -4.100001
v 2.499999 0.308584 -4.100001
v 1.399999 0.308584 -4.100000
v 1.399999 0.508584 -4.100000
v 1.199999 0.448584 -4.030001
v 1.199999 0.368584 -4.030001
v 1.199999 0.448584 -4.070001
v 1.199999 0.368584 -4.070001
v 2.500000 0.008584 -0.650001
v 1.893409 0.008584 -0.000001
v -0.300000 0.008584 -0.800000
v 2.500000 0.008584 -0.800001
v -0.300000 0.008584 -0.650000
v -0.300000 0.008584 0.000000
v -1.600000 0.008584 -0.456222
v -1.478900 0.032222 -0.651831
v -1.600000 0.008584 0.000001
v 3.493368 0.430864 -2.204426
v 3.493368 0.386303 -2.204426
v 4.159155 0.430864 -1.938111
v 4.159155 0.386303 -1.938111
v 3.772229 0.008584 -0.800001
v 3.772229 0.158584 -0.000001
v 2.500000 0.008584 -0.650001
v 3.109231 0.158584 -0.516538
v 1.893408 0.008584 -0.375001
v 3.772229 0.008584 -0.650001
v 1.893409 0.508584 -0.125001
v 1.893408 0.508584 -0.375001
v 1.893408 0.508584 -0.250001
v 3.772229 0.508584 -0.000001
v 3.109231 0.574463 -0.250001
v 3.109231 0.546215 -0.351537
v 3.109231 0.548274 -0.155867
v 3.109231 0.466854 -0.516538
v 3.109231 0.050313 -0.516538
v 3.109231 -0.029467 -0.350665
v 3.109231 -0.060641 -0.250001
v 3.109231 -0.031731 -0.156647
v 1.893408 0.008584 -0.250001
v 1.893409 0.008584 -0.125001
v 2.500000 0.008584 -0.512501
v 3.693186 0.437616 -0.963480
v 3.109231 0.158584 -0.066377
v 3.109231 0.308584 -0.066377
v 3.772229 0.308584 -0.582914
v 3.109231 0.040486 -0.066377
v 3.772229 0.158584 -0.582914
v 3.772229 0.608584 -0.125001
v 3.772229 0.643360 -0.250001
v 3.772229 0.608584 -0.375001
v 3.725387 0.501915 -0.621195
v 3.109231 0.476682 -0.066377
v 3.772229 0.008584 -0.582914
v 3.772229 -0.091416 -0.375001
v 3.772229 -0.130126 -0.250001
v 3.772229 -0.091416 -0.125001
v 3.772229 0.158584 -0.066377
v 3.772229 0.308584 -0.066377
v 3.772229 0.040486 -0.066377
v 3.772229 0.476682 -0.066377
v 3.772229 0.308584 -0.516538
v 3.772229 0.158584 -0.516538
v 3.772229 0.548274 -0.155868
v 3.772229 0.574463 -0.250001
v 3.772229 0.546215 -0.351538
v 3.772229 0.466854 -0.516538
v 3.772229 0.050313 -0.516538
v 3.772229 -0.029467 -0.350666
v 3.772229 -0.060641 -0.250001
v 3.772229 -0.031731 -0.156647
v 1.893408 0.508584 -0.500001
v 2.500000 0.508584 -1.000001
v 2.695506 0.435433 -0.963118
v 2.897979 0.503938 -0.542879
v 3.772229 0.508584 -0.582914
v 3.732440 0.430864 -1.006008
v 3.053487 1.503148 -1.006008
v 3.497551 0.437616 -0.963480
v 3.776084 1.373764 -1.006008
v 3.054570 1.507718 -0.963119
v 3.497551 0.430864 -1.006008
v 3.776084 1.380517 -0.963480
v 2.055634 0.308584 -1.000001
v 2.055634 0.508584 -1.000001
v -1.968483 0.284946 -0.456222
v -2.000000 0.308584 -0.766148
v -1.631518 0.032222 -0.456222
v -1.815864 0.284946 -0.039396
v -1.600000 0.008584 -0.685374
v -1.478899 0.032222 -0.039396
v -1.968482 0.284946 -0.039396
v -1.631518 0.032222 -0.039396
v -1.815864 0.284946 -0.456222
v -1.968483 0.284946 -0.719876
v -1.478899 0.032222 -0.456222
v -1.631518 0.032222 -0.651831
vt 0.875000 0.500000
vt 0.625000 0.500000
vt 0.625000 0.500000
vt 0.875000 0.500000
vt 0.625000 0.625000
vt 0.875000 0.625000
vt 0.875000 0.656250
vt 0.875000 0.687500
vt 0.875000 0.718750
vt 0.875000 0.750000
vt 0.625000 0.750000
vt 0.625000 0.750000
vt 0.625000 0.625000
vt 0.375000 0.500000
vt 0.375000 0.500000
vt 0.375000 0.500000
vt 0.625000 0.625000
vt 0.625000 0.750000
vt 0.625000 0.750000
vt 0.625000 0.625000
vt 0.375000 0.500000
vt 0.625000 0.500000
vt 0.625000 0.500000
vt 0.375000 0.500000
vt 0.375000 0.625000
vt 0.375000 0.625000
vt 0.375000 0.500000
vt 0.625000 0.500000
vt 0.625000 0.500000
vt 0.375000 0.500000
vt 0.375000 0.625000
vt 0.375000 0.625000
vt 0.625000 0.250000
vt 0.375000 0.250000
vt 0.375000 0.250000
vt 0.625000 0.250000
vt 0.875000 0.614235
vt 0.875000 0.510924
vt 0.875000 0.510478
vt 0.875000 0.614456
vt 0.125000 0.500000
vt 0.125000 0.500000
vt 0.000000 0.000000
vt 0.000000 0.000000
vt 0.375000 0.250000
vt 0.625000 0.250000
vt 0.375000 0.500000
vt 0.375000 0.625000
vt 0.625000 0.500000
vt 0.625000 0.625000
vt 0.625000 0.750000
vt 0.375000 0.625000
vt 0.375000 0.500000
vt 0.375000 0.625000
vt 0.625000 0.500000
vt 0.625000 0.500000
vt 0.625000 0.750000
vt 0.625000 0.625000
vt 0.375000 0.750000
vt 0.375000 0.750000
vt 0.375000 0.750000
vt 0.375000 0.750000
vt 0.375000 0.750000
vt 0.375000 0.750000
vt 0.875000 0.718750
vt 0.875000 0.750000
vt 0.375000 0.750000
vt 0.625000 0.500000
vt 0.750000 0.500000
vt 0.875000 0.500000
vt 0.625000 0.500000
vt 0.875000 0.500000
vt 0.375000 0.250000
vt 0.625000 0.250000
vt 0.625000 0.250000
vt 0.375000 0.250000
vt 0.375000 0.500000
vt 0.125000 0.500000
vt 0.125000 0.500000
vt 0.250000 0.500000
vt 0.375000 0.250000
vt 0.625000 0.250000
vt 0.375000 0.500000
vt 0.625000 0.500000
vt 0.625000 0.500000
vt 0.125000 0.500000
vt 0.375000 0.500000
vt 0.375000 0.500000
vt 0.054149 0.043820
vt 0.175639 0.146099
vt 0.691429 0.583489
vt 0.764783 0.625449
vt 0.766664 0.605494
vt 0.670832 0.513654
vt 0.150923 0.115545
vt 0.073998 0.058283
vt 0.043957 0.034997
vt 0.025180 0.020117
vt 0.029685 0.023782
vt 0.024459 0.019608
vt 0.026317 0.021108
vt 0.026682 0.021413
vt 0.375000 0.625000
vt 0.375000 0.500000
vt 0.375000 0.500000
vt 0.375000 0.625000
vt 0.375000 0.750000
vt 0.375000 0.750000
vt 0.125000 0.625000
vt 0.125000 0.562500
vt 0.375000 0.250000
vt 0.625000 0.250000
vt 0.000000 0.000000
vt 0.000000 0.000000
vt 0.000000 0.000000
vt 0.000000 0.000000
vt 0.375000 0.250000
vt 0.625000 0.250000
vt 0.000000 0.000000
vt 0.000000 0.000000
vt 0.000000 0.000000
vt 0.000000 0.000000
vt 0.000000 0.000000
vt 0.000000 0.000000
vt 0.000000 0.000000
vt 0.000000 0.000000
vt 0.000000 0.000000
vt 0.000000 0.000000
vt 0.875000 0.656250
vt 0.875000 0.687500
vt 0.000000 0.000000
vt 0.000000 0.000000
vt 0.000000 0.000000
vt 0.000000 0.000000
vt 0.875000 0.500000
vt 0.875000 0.500000
vt 0.000000 0.000000
vt 0.000000 0.000000
vt 0.000000 0.000000
vt 0.000000 0.000000
vt 0.000000 0.000000
vt 0.000000 0.000000
vt 0.175639 0.146099
vt 0.054149 0.043820
vt 0.000000 0.000000
vt 0.000000 0.000000
vt 0.026682 0.021413
vt 0.043957 0.034997
vt 0.073998 0.058283
vt 0.766664 0.605494
vt 0.764783 0.625449
vt 0.670832 0.513654
vt 0.691429 0.583489
vt 0.150923 0.115545
vt 0.025180 0.020117
vt 0.029685 0.023782
vt 0.024459 0.019608
vt 0.026317 0.021108
vt 0.875000 0.625000
vt 0.000000 0.000000
vt 0.000000 0.000000
vt 0.000000 0.000000
vt 0.000000 0.000000
vt 0.375000 0.625000
vt 0.375000 0.516691
vt 0.375000 0.739206
vt 0.375000 0.520647
vt 0.375000 0.625000
vt 0.375000 0.739206
vt 0.375000 0.739206
vt 0.375000 0.739206
vt 0.375000 0.625000
vt 0.375000 0.516691
vt 0.375000 0.520647
vt 0.375000 0.625000
vt 0.875000 0.500000
vt 0.875000 0.500000
vt 0.625000 0.500000
vt 0.625000 0.500000
vt 0.625000 0.625000
vt 0.875000 0.718750
vt 0.875000 0.687500
vt 0.875000 0.656250
vt 0.875000 0.625000
vt 0.625000 0.625000
vt 0.375000 0.500000
vt 0.375000 0.500000
vt 0.375000 0.500000
vt 0.625000 0.625000
vt 0.625000 0.625000
vt 0.375000 0.500000
vt 0.375000 0.500000
vt 0.625000 0.500000
vt 0.625000 0.500000
vt 0.625000 0.750000
vt 0.625000 0.750000
vt 0.375000 0.625000
vt 0.375000 0.625000
vt 0.375000 0.500000
vt 0.375000 0.500000
vt 0.625000 0.500000
vt 0.625000 0.500000
vt 0.375000 0.625000
vt 0.375000 0.625000
vt 0.625000 0.250000
vt 0.625000 0.250000
vt 0.375000 0.250000
vt 0.375000 0.250000
vt 0.875000 0.614235
vt 0.875000 0.614456
vt 0.875000 0.510478
vt 0.875000 0.510924
vt 0.000000 0.000000
vt 0.000000 0.000000
vt 0.125000 0.500000
vt 0.125000 0.500000
vt 0.625000 0.250000
vt 0.375000 0.250000
vt 0.375000 0.625000
vt 0.375000 0.500000
vt 0.625000 0.500000
vt 0.625000 0.625000
vt 0.375000 0.625000
vt 0.375000 0.625000
vt 0.375000 0.500000
vt 0.625000 0.500000
vt 0.625000 0.500000
vt 0.625000 0.625000
vt 0.875000 0.718750
vt 0.625000 0.500000
vt 0.875000 0.500000
vt 0.750000 0.500000
vt 0.875000 0.500000
vt 0.625000 0.500000
vt 0.375000 0.250000
vt 0.375000 0.250000
vt 0.625000 0.250000
vt 0.625000 0.250000
vt 0.375000 0.500000
vt 0.125000 0.500000
vt 0.125000 0.500000
vt 0.250000 0.500000
vt 0.375000 0.250000
vt 0.375000 0.500000
vt 0.625000 0.250000
vt 0.625000 0.500000
vt 0.625000 0.500000
vt 0.125000 0.500000
vt 0.375000 0.500000
vt 0.375000 0.500000
vt 0.054149 0.043820
vt 0.026682 0.021413
vt 0.026317 0.021108
vt 0.024459 0.019608
vt 0.029685 0.023782
vt 0.025180 0.020117
vt 0.043957 0.034997
vt 0.073998 0.058283
vt 0.150923 0.115545
vt 0.670832 0.513654
vt 0.766664 0.605494
vt 0.764783 0.625449
vt 0.691429 0.583489
vt 0.175639 0.146099
vt 0.375000 0.625000
vt 0.375000 0.625000
vt 0.375000 0.500000
vt 0.375000 0.500000
vt 0.125000 0.562500
vt 0.125000 0.625000
vt 0.625000 0.250000
vt 0.375000 0.250000
vt 0.000000 0.000000
vt 0.000000 0.000000
vt 0.000000 0.000000
vt 0.000000 0.000000
vt 0.375000 0.250000
vt 0.625000 0.250000
vt 0.000000 0.000000
vt 0.000000 0.000000
vt 0.000000 0.000000
vt 0.000000 0.000000
vt 0.000000 0.000000
vt 0.000000 0.000000
vt 0.000000 0.000000
vt 0.875000 0.656250
vt 0.000000 0.000000
vt 0.000000 0.000000
vt 0.875000 0.687500
vt 0.000000 0.000000
vt 0.000000 0.000000
vt 0.000000 0.000000
vt 0.000000 0.000000
vt 0.875000 0.500000
vt 0.875000 0.500000
vt 0.000000 0.000000
vt 0.000000 0.000000
vt 0.000000 0.000000
vt 0.000000 0.000000
vt 0.000000 0.000000
vt 0.175639 0.146099
vt 0.054149 0.043820
vt 0.026682 0.021413
vt 0.043957 0.034997
vt 0.073998 0.058283
vt 0.766664 0.605494
vt 0.764783 0.625449
vt 0.670832 0.513654
vt 0.691429 0.583489
vt 0.150923 0.115545
vt 0.025180 0.020117
vt 0.029685 0.023782
vt 0.024459 0.019608
vt 0.026317 0.021108
vt 0.875000 0.625000
vt 0.000000 0.000000
vt 0.000000 0.000000
vt 0.000000 0.000000
vt 0.000000 0.000000
vt 0.375000 0.625000
vt 0.375000 0.516691
vt 0.375000 0.739206
vt 0.375000 0.520647
vt 0.375000 0.625000
vt 0.375000 0.739206
vt 0.375000 0.739206
vt 0.375000 0.739206
vt 0.375000 0.625000
vt 0.375000 0.516691
vt 0.375000 0.520647
vt 0.375000 0.625000
vt 0.625000 0.625000
vt 0.625000 0.625000
vt 0.625000 0.625000
vt 0.625000 0.625000
vn 0.0000 1.0000 0.0000
vn 0.0248 0.9938 0.1087
vn 0.1350 0.9659 0.2210
vn -0.0219 -0.9871 0.1589
vn -0.3558 0.9259 0.1270
vn -0.2773 0.0000 0.9608
vn 0.0645 -0.9979 -0.0000
vn -0.2824 0.0000 0.9593
vn -0.2734 -0.9619 -0.0000
vn -0.0309 0.0000 0.9995
vn 0.0644 0.9969 0.0454
vn 0.0129 -0.4839 0.8750
vn -0.8321 0.0000 0.5547
vn 0.0851 -0.9964 0.0000
vn 0.0000 -1.0000 0.0000
vn -0.3367 0.0000 0.9416
vn -0.2399 0.0000 0.9708
vn -0.2330 0.9501 0.2074
vn -0.4067 0.0000 0.9136
vn -0.2355 0.0000 0.9719
vn 0.1296 0.9618 0.2413
vn -0.0434 0.9171 0.3962
vn -0.0046 -0.9971 0.0756
vn 0.0429 -0.9985 0.0343
vn -0.2870 0.4220 0.8600
vn -0.0128 -0.9918 0.1271
vn 0.0747 -0.9923 0.0988
vn -0.0247 0.9282 -0.3713
vn -0.3097 -0.9458 0.0973
vn -1.0000 0.0000 0.0000
vn 0.0592 -0.9947 0.0840
vn -0.3105 0.3830 0.8700
vn 0.0818 0.9849 0.1524
vn 0.0000 0.7725 -0.6351
vn 0.9870 0.0000 -0.1604
vn -0.8170 0.0000 0.5766
vn 0.9973 0.0000 -0.0734
vn 0.0352 0.9855 0.1658
vn 0.0000 0.0000 1.0000
vn 0.0005 0.9865 0.1640
vn 1.0000 0.0000 -0.0000
vn -0.0812 0.8595 -0.5047
vn 0.0000 -0.7725 -0.6351
vn -0.1483 0.0000 -0.9889
vn -0.0812 -0.8595 -0.5047
vn -0.1483 0.0000 0.9889
vn 0.4100 0.0000 -0.9121
vn -0.1015 -0.4763 0.8734
vn 0.0000 -0.5547 0.8321
vn 0.3714 0.0000 0.9285
vn 0.0000 0.9876 0.1568
vn 0.9615 0.0000 -0.2747
vn -0.0074 0.9856 0.1688
vn -0.0362 0.9442 0.3273
vn -0.0618 0.9886 0.1375
vn -0.0618 0.9886 -0.1375
vn 0.9975 0.0412 0.0570
vn -0.0000 0.0000 -1.0000
vn 0.9581 -0.2830 -0.0449
vn 0.9956 0.0000 0.0936
vn -0.0374 -0.9404 0.3379
vn -0.0627 -0.9863 0.1527
vn -0.0627 -0.9863 -0.1527
vn -0.0247 -0.9282 -0.3713
vn 0.0000 -0.9634 0.2680
vn -0.0000 -0.9634 -0.2680
vn 0.0000 -0.7809 0.6247
vn -0.0000 -0.9012 -0.4334
vn -0.0000 0.9012 -0.4334
vn -0.0000 0.9552 -0.2958
vn 0.0000 0.9552 0.2958
vn 0.0000 0.7809 0.6247
vn 0.0644 0.9939 -0.0901
vn -0.0028 0.9852 0.1713
vn -0.0113 0.9913 0.1314
vn -0.0080 0.9833 0.1817
vn -0.8672 0.4760 -0.1462
vn 0.1734 0.9760 0.1316
vn 0.0265 -0.0089 -0.9996
vn -0.0272 0.0091 0.9996
vn 0.0005 -0.0001 -1.0000
vn 0.0005 -0.9865 0.1640
vn -0.6000 -0.8000 0.0000
vn 0.0000 0.2600 -0.9656
vn 0.0248 0.9938 -0.1087
vn 0.1350 0.9659 -0.2210
vn -0.0219 -0.9871 -0.1589
vn -0.3558 0.9259 -0.1270
vn -0.2773 0.0000 -0.9608
vn -0.2824 0.0000 -0.9593
vn -0.0309 0.0000 -0.9995
vn 0.0644 0.9969 -0.0454
vn 0.0129 -0.4839 -0.8750
vn -0.8321 0.0000 -0.5547
vn -0.3367 0.0000 -0.9416
vn -0.2399 0.0000 -0.9708
vn -0.2330 0.9501 -0.2074
vn -0.4067 0.0000 -0.9136
vn -0.2355 0.0000 -0.9719
vn 0.1296 0.9618 -0.2413
vn -0.0434 0.9171 -0.3962
vn -0.0046 -0.9971 -0.0756
vn 0.0429 -0.9985 -0.0343
vn -0.2870 0.4220 -0.8600
vn -0.0128 -0.9918 -0.1271
vn 0.0747 -0.9923 -0.0988
vn -0.0247 0.9282 0.3713
vn -0.3097 -0.9458 -0.0973
vn 0.0592 -0.9947 -0.0840
vn -0.3105 0.3830 -0.8700
vn 0.0818 0.9849 -0.1524
vn 0.0000 0.7725 0.6351
vn 0.9870 0.0000 0.1604
vn -0.8170 0.0000 -0.5766
vn 0.9973 0.0000 0.0734
vn 0.0352 0.9855 -0.1658
vn 0.0005 0.9865 -0.1640
vn -0.0812 0.8595 0.5047
vn 0.0000 -0.7725 0.6351
vn -0.0812 -0.8595 0.5047
vn 0.4100 0.0000 0.9121
vn -0.1015 -0.4763 -0.8734
vn -0.0000 -0.5547 -0.8321
vn 0.3714 0.0000 -0.9285
vn 0.0000 0.9876 -0.1568
vn 0.9615 0.0000 0.2747
vn -0.0074 0.9856 -0.1688
vn -0.0362 0.9442 -0.3273
vn 0.9975 0.0412 -0.0570
vn 0.9581 -0.2830 0.0449
vn 0.9956 0.0000 -0.0936
vn -0.0374 -0.9404 -0.3379
vn -0.0247 -0.9282 0.3713
vn -0.0000 -0.7809 -0.6247
vn 0.0000 -0.9012 0.4334
vn 0.0000 0.9012 0.4334
vn -0.0000 0.7809 -0.6247
vn 0.0644 0.9939 0.0901
vn -0.0028 0.9852 -0.1713
vn -0.0113 0.9913 -0.1314
vn -0.0080 0.9833 -0.1817
vn -0.8672 0.4760 0.1462
vn 0.1734 0.9760 -0.1316
vn 0.0265 -0.0089 0.9996
vn -0.0272 0.0091 -0.9996
vn 0.0005 -0.0001 1.0000
vn 0.0005 -0.9865 -0.1640
vn 0.0000 0.2600 0.9656
vn 0.0680 0.9535 0.2936
vn -0.2879 0.9211 0.2622
vn 0.0417 0.9630 0.2662
vn -0.0808 0.8115 0.5787
vn -0.2814 0.6826 0.6744
vn -0.1135 0.6980 0.7071
vn 0.0680 0.9535 -0.2936
vn -0.2879 0.9211 -0.2622
vn 0.0417 0.9630 -0.2662
vn -0.0808 0.8115 -0.5787
vn -0.2814 0.6826 -0.6744
vn -0.1135 0.6980 -0.7071
usemtl Base_Color
s off
f 47/1/1 46/2/1 45/3/1 42/4/1
f 25/5/2 116/6/2 74/7/2 75/8/2 73/9/2 142/10/2 145/11/2
f 25/5/3 145/11/3 151/12/3 27/13/3
f 131/14/4 3/15/4 49/16/4
f 37/17/5 167/18/5 159/19/5 31/20/5
f 22/21/6 20/22/6 7/23/6 8/24/6
f 39/25/7 22/21/7 8/24/7 28/26/7
f 18/27/8 16/28/8 9/29/8 10/30/8
f 35/31/9 18/27/9 10/30/9 30/32/9
f 117/33/10 1/34/10 11/35/10 12/36/10
f 24/37/11 2/38/11 118/39/11 119/40/11
f 11/35/12 1/41/12 60/42/12 68/43/12 33/44/12
f 12/36/13 11/35/13 65/45/13 64/46/13
f 28/26/14 8/24/14 19/47/14 34/48/14
f 34/48/15 19/47/15 18/27/15 35/31/15
f 8/24/16 7/23/16 17/49/16 19/47/16
f 19/47/17 17/49/17 16/28/17 18/27/17
f 36/50/18 166/51/18 167/18/18 37/17/18
f 26/52/15 131/14/15 23/53/15 38/54/15
f 38/54/15 23/53/15 22/21/15 39/25/15
f 131/14/19 5/55/19 21/56/19 23/53/19
f 23/53/20 21/56/20 20/22/20 22/21/20
f 27/13/21 151/12/21 174/57/21 40/58/21
f 5/55/22 27/13/22 40/58/22 21/56/22
f 180/59/23 38/54/23 39/25/23 181/60/23
f 150/61/24 26/52/24 38/54/24 180/59/24
f 17/49/25 36/50/25 37/17/25 16/28/25
f 172/62/26 34/48/26 35/31/26 173/63/26
f 154/64/27 28/26/27 34/48/27 172/62/27
f 73/9/28 93/65/28 239/66/28 142/10/28
f 173/63/29 35/31/29 30/32/29 158/67/29
f 10/30/30 9/29/30 31/20/30 159/19/30 158/67/30 30/32/30
f 181/60/31 39/25/31 28/26/31 154/64/31
f 16/28/32 37/17/32 31/20/32 9/29/32
f 4/68/33 25/5/33 27/13/33 5/55/33
f 4/68/1 129/69/1 117/70/1 116/6/1 25/5/1
f 42/4/34 45/3/34 53/71/34 50/72/34
f 48/73/35 47/74/35 42/75/35 43/76/35
f 46/2/36 49/16/36 44/77/36 45/3/36
f 49/16/15 48/78/15 43/79/15 44/77/15
f 128/80/37 129/69/37 47/74/37 48/73/37
f 4/68/38 5/55/38 46/2/38
f 117/70/39 129/69/39 128/80/39 1/41/39
f 129/69/40 4/68/40 46/2/40 47/74/40
f 51/81/39 50/82/39 53/71/39 52/83/39
f 43/76/41 42/75/41 50/82/41 51/81/41
f 53/71/42 45/3/42 54/84/42 56/85/42
f 44/77/43 43/79/43 51/86/43 52/83/43
f 54/84/30 55/87/30 57/88/30 56/85/30
f 45/3/44 44/77/44 55/87/44 54/84/44
f 44/77/45 52/83/45 57/88/45 55/87/45
f 52/83/46 53/71/46 56/85/46 57/88/46
f 131/14/47 5/55/47 46/2/47 49/16/47
f 88/89/41 89/90/41 97/91/41 78/92/41 76/93/41 77/94/41 79/95/41 14/96/41 70/97/41 80/98/41 81/99/41 82/100/41 83/101/41 91/102/41
f 61/103/15 59/104/15 134/105/15 62/106/15
f 222/107/15 61/103/15 62/106/15 225/108/15
f 60/42/15 59/104/15 61/103/15 58/109/15 69/110/15
f 3/15/48 131/14/48 134/105/48 59/104/48
f 1/41/49 128/80/49 3/15/49 59/104/49 60/42/49
f 64/46/50 65/45/50 67/111/50 66/112/50
f 123/113/51 126/114/51 121/115/51 87/116/51
f 13/117/52 15/118/52 66/112/52 67/111/52
f 118/39/53 123/113/53 87/116/53 96/119/53 119/120/53
f 13/117/15 67/111/15 65/45/15 11/35/15 33/44/15
f 86/121/15 69/122/15 58/109/15 61/103/15 222/107/15 218/123/15 85/124/15 84/125/15 71/126/15
f 74/7/54 116/6/54 32/127/54 120/128/54 95/129/54
f 94/130/55 75/8/55 74/7/55 95/129/55
f 94/130/56 93/65/56 73/9/56 75/8/56
f 72/131/57 98/132/57 92/133/57 90/134/57 33/44/57 68/43/57
f 15/135/58 13/117/58 33/44/58 121/136/58
f 127/137/59 124/138/59 126/114/59 123/113/59
f 90/134/60 120/128/60 121/115/60 33/44/60
f 71/126/61 99/139/61 98/132/61 86/121/61
f 84/125/62 100/140/62 99/139/62 71/126/62
f 101/141/63 100/140/63 84/125/63 85/124/63
f 218/123/64 191/142/64 101/141/64 85/124/64
f 69/122/15 86/121/15 98/132/15 72/131/15
f 60/42/15 69/122/15 72/131/15 68/43/15
f 103/143/41 102/144/41 231/145/41 163/146/41
f 102/144/41 104/147/41 191/142/41 231/145/41
f 107/148/41 106/149/41 90/134/41 92/133/41
f 109/150/41 108/151/41 93/65/41 94/130/41
f 110/152/41 109/150/41 94/130/41 95/129/41
f 108/151/41 105/153/41 239/66/41 93/65/41
f 111/154/41 110/152/41 95/129/41 120/128/41
f 112/155/41 107/148/41 92/133/41 98/132/41
f 113/156/41 112/155/41 98/132/41 99/139/41
f 114/157/41 113/156/41 99/139/41 100/140/41
f 115/158/41 114/157/41 100/140/41 101/141/41
f 104/147/41 115/158/41 101/141/41 191/142/41
f 106/149/41 111/154/41 120/128/41 90/134/41
f 105/153/41 103/143/41 163/146/41 239/66/41
f 89/90/39 88/89/39 102/144/39 103/143/39
f 88/89/39 91/102/39 104/147/39 102/144/39
f 97/91/39 89/90/39 103/143/39 105/153/39
f 70/97/58 14/96/58 106/149/58 107/148/58
f 76/93/65 78/92/65 108/151/65 109/150/65
f 77/94/66 76/93/66 109/150/66 110/152/66
f 78/92/67 97/91/67 105/153/67 108/151/67
f 79/95/68 77/94/68 110/152/68 111/154/68
f 80/98/58 70/97/58 107/148/58 112/155/58
f 81/99/69 80/98/69 112/155/69 113/156/69
f 82/100/70 81/99/70 113/156/70 114/157/70
f 83/101/71 82/100/71 114/157/71 115/158/71
f 91/102/72 83/101/72 115/158/72 104/147/72
f 14/96/58 79/95/58 111/154/58 106/149/58
f 2/38/73 24/37/73 116/6/73 117/70/73
f 24/37/74 119/40/74 32/159/74 116/6/74
f 119/120/75 96/119/75 120/128/75 32/127/75
f 121/115/1 126/114/1 12/160/1 64/46/1 66/112/1 15/118/1
f 96/119/76 87/116/76 121/115/76 120/128/76
f 2/38/77 117/70/77 122/161/77 125/162/77
f 127/137/78 125/162/78 122/161/78 124/138/78
f 126/114/39 124/138/39 122/161/39 12/160/39
f 2/38/79 125/162/79 118/163/79
f 12/160/80 122/161/80 117/70/80
f 125/162/81 127/137/81 123/113/81 118/39/81
f 3/15/82 128/80/82 48/73/82 49/16/82
f 130/164/83 139/165/83 131/14/83 26/52/83
f 136/166/83 130/164/83 26/52/83 150/61/83
f 141/167/83 132/168/83 62/106/83 134/105/83
f 132/168/83 137/169/83 225/108/83 62/106/83
f 139/165/83 141/167/83 134/105/83 131/14/83
f 137/169/83 136/166/83 150/61/83 225/108/83
f 135/170/39 133/171/39 136/166/39 137/169/39
f 138/172/15 6/173/15 139/165/15 130/164/15
f 133/171/15 138/172/15 130/164/15 136/166/15
f 63/174/1 140/175/1 132/168/1 141/167/1
f 140/175/1 135/170/1 137/169/1 132/168/1
f 6/173/84 63/174/84 141/167/84 139/165/84
f 206/176/1 201/177/1 204/178/1 205/179/1
f 183/180/85 145/11/85 142/10/85 236/181/85 238/182/85 237/183/85 280/184/85
f 183/180/86 185/185/86 151/12/86 145/11/86
f 295/186/87 208/187/87 146/188/87
f 196/189/88 189/190/88 159/19/88 167/18/88
f 178/191/89 153/192/89 152/193/89 176/194/89
f 175/195/39 155/196/39 154/64/39 181/60/39
f 198/197/7 186/198/7 153/192/7 178/191/7
f 170/199/90 157/200/90 156/201/90 168/202/90
f 167/18/39 159/19/39 158/67/39 173/63/39
f 194/203/9 188/204/9 157/200/9 170/199/9
f 281/205/91 161/206/91 160/207/91 143/208/91
f 182/209/92 283/210/92 282/211/92 144/212/92
f 160/207/93 192/213/93 230/214/93 220/215/93 143/216/93
f 161/206/94 226/217/94 227/218/94 160/207/94
f 186/198/14 193/219/14 171/220/14 153/192/14
f 193/219/15 194/203/15 170/199/15 171/220/15
f 155/196/39 166/51/39 172/62/39 154/64/39
f 166/51/39 167/18/39 173/63/39 172/62/39
f 153/192/95 171/220/95 169/221/95 152/193/95
f 171/220/96 170/199/96 168/202/96 169/221/96
f 195/222/97 196/189/97 167/18/97 166/51/97
f 184/223/15 197/224/15 179/225/15 295/186/15
f 197/224/15 198/197/15 178/191/15 179/225/15
f 151/12/39 174/57/39 180/59/39 150/61/39
f 174/57/39 175/195/39 181/60/39 180/59/39
f 295/186/98 179/225/98 177/226/98 148/227/98
f 179/225/99 178/191/99 176/194/99 177/226/99
f 185/185/100 199/228/100 174/57/100 151/12/100
f 148/227/101 177/226/101 199/228/101 185/185/101
f 180/59/102 181/60/102 198/197/102 197/224/102
f 150/61/103 180/59/103 197/224/103 184/223/103
f 169/221/104 168/202/104 196/189/104 195/222/104
f 172/62/105 173/63/105 194/203/105 193/219/105
f 154/64/106 172/62/106 193/219/106 186/198/106
f 236/181/107 142/10/107 239/66/107 257/229/107
f 173/63/108 158/67/108 188/204/108 194/203/108
f 157/200/30 188/204/30 158/67/30 159/19/30 189/190/30 156/201/30
f 181/60/109 154/64/109 186/198/109 198/197/109
f 168/202/110 156/201/110 189/190/110 196/189/110
f 147/230/111 148/227/111 185/185/111 183/180/111
f 147/230/1 183/180/1 280/184/1 281/231/1 293/232/1
f 201/177/112 209/233/112 212/234/112 204/178/112
f 207/235/113 202/236/113 201/237/113 206/238/113
f 205/179/114 204/178/114 203/239/114 208/187/114
f 208/187/15 203/239/15 202/240/15 207/241/15
f 292/242/115 207/235/115 206/238/115 293/232/115
f 147/230/116 205/179/116 148/227/116
f 281/231/58 143/216/58 292/242/58 293/232/58
f 293/232/117 206/238/117 205/179/117 147/230/117
f 210/243/58 211/244/58 212/234/58 209/245/58
f 202/236/41 210/243/41 209/245/41 201/237/41
f 212/234/118 215/246/118 213/247/118 204/178/118
f 203/239/119 211/244/119 210/248/119 202/240/119
f 213/247/30 215/246/30 216/249/30 214/250/30
f 204/178/46 213/247/46 214/250/46 203/239/46
f 203/239/120 214/250/120 216/249/120 211/244/120
f 211/244/44 216/249/44 215/246/44 212/234/44
f 295/186/121 208/187/121 205/179/121 148/227/121
f 252/251/41 255/252/41 247/253/41 246/254/41 245/255/41 244/256/41 233/257/41 164/258/41 243/259/41 241/260/41 240/261/41 242/262/41 261/263/41 253/264/41
f 221/265/15 223/266/15 298/267/15 219/268/15
f 222/107/15 225/108/15 223/266/15 221/265/15
f 220/215/15 232/269/15 217/270/15 221/265/15 219/268/15
f 146/188/122 219/268/122 298/267/122 295/186/122
f 143/216/123 220/215/123 219/268/123 146/188/123 292/242/123
f 226/217/124 228/271/124 229/272/124 227/218/124
f 287/273/125 251/274/125 285/275/125 290/276/125
f 162/277/126 229/272/126 228/271/126 165/278/126
f 282/211/127 283/279/127 260/280/127 251/274/127 287/273/127
f 162/277/15 192/213/15 160/207/15 227/218/15 229/272/15
f 250/281/15 234/282/15 248/283/15 249/284/15 218/123/15 222/107/15 221/265/15 217/270/15 232/285/15
f 237/183/128 259/286/128 284/287/128 190/288/128 280/184/128
f 258/289/56 259/286/56 237/183/56 238/182/56
f 258/289/55 238/182/55 236/181/55 257/229/55
f 235/290/129 230/214/129 192/213/129 254/291/129 256/292/129 262/293/129
f 165/294/39 285/295/39 192/213/39 162/277/39
f 291/296/130 287/273/130 290/276/130 288/297/130
f 254/291/131 192/213/131 285/275/131 284/287/131
f 234/282/132 250/281/132 262/293/132 263/298/132
f 248/283/63 234/282/63 263/298/63 264/299/63
f 265/300/62 249/284/62 248/283/62 264/299/62
f 218/123/133 249/284/133 265/300/133 191/142/133
f 232/285/15 235/290/15 262/293/15 250/281/15
f 220/215/15 230/214/15 235/290/15 232/285/15
f 267/301/41 163/146/41 231/145/41 266/302/41
f 266/302/41 231/145/41 191/142/41 268/303/41
f 271/304/41 256/292/41 254/291/41 270/305/41
f 273/306/41 258/289/41 257/229/41 272/307/41
f 274/308/41 259/286/41 258/289/41 273/306/41
f 272/307/41 257/229/41 239/66/41 269/309/41
f 275/310/41 284/287/41 259/286/41 274/308/41
f 276/311/41 262/293/41 256/292/41 271/304/41
f 277/312/41 263/298/41 262/293/41 276/311/41
f 278/313/41 264/299/41 263/298/41 277/312/41
f 279/314/41 265/300/41 264/299/41 278/313/41
f 268/303/41 191/142/41 265/300/41 279/314/41
f 270/305/41 254/291/41 284/287/41 275/310/41
f 269/309/41 239/66/41 163/146/41 267/301/41
f 253/264/58 267/301/58 266/302/58 252/251/58
f 252/251/58 266/302/58 268/303/58 255/252/58
f 261/263/58 269/309/58 267/301/58 253/264/58
f 233/257/39 271/304/39 270/305/39 164/258/39
f 240/261/66 273/306/66 272/307/66 242/262/66
f 241/260/65 274/308/65 273/306/65 240/261/65
f 242/262/134 272/307/134 269/309/134 261/263/134
f 243/259/135 275/310/135 274/308/135 241/260/135
f 244/256/39 276/311/39 271/304/39 233/257/39
f 245/255/136 277/312/136 276/311/136 244/256/136
f 246/254/71 278/313/71 277/312/71 245/255/71
f 247/253/70 279/314/70 278/313/70 246/254/70
f 255/252/137 268/303/137 279/314/137 247/253/137
f 164/258/39 270/305/39 275/310/39 243/259/39
f 144/212/138 281/231/138 280/184/138 182/209/138
f 182/209/139 280/184/139 190/315/139 283/210/139
f 283/279/140 190/288/140 284/287/140 260/280/140
f 285/275/1 165/278/1 228/271/1 226/217/1 161/316/1 290/276/1
f 260/280/141 284/287/141 285/275/141 251/274/141
f 144/212/142 289/317/142 286/318/142 281/231/142
f 291/296/143 288/297/143 286/318/143 289/317/143
f 290/276/58 161/316/58 286/318/58 288/297/58
f 144/212/144 282/319/144 289/317/144
f 161/316/145 281/231/145 286/318/145
f 289/317/146 282/211/146 287/273/146 291/296/146
f 146/188/147 208/187/147 207/235/147 292/242/147
f 294/320/83 184/223/83 295/186/83 303/321/83
f 300/322/83 150/61/83 184/223/83 294/320/83
f 305/323/83 298/267/83 223/266/83 296/324/83
f 296/324/83 223/266/83 225/108/83 301/325/83
f 303/321/83 295/186/83 298/267/83 305/323/83
f 301/325/83 225/108/83 150/61/83 300/322/83
f 299/326/58 301/325/58 300/322/58 297/327/58
f 302/328/15 294/320/15 303/321/15 149/329/15
f 297/327/15 300/322/15 294/320/15 302/328/15
f 224/330/1 305/323/1 296/324/1 304/331/1
f 304/331/1 296/324/1 301/325/1 299/326/1
f 149/329/148 303/321/148 305/323/148 224/330/148
usemtl Window
f 138/172/83 133/171/83 135/170/83 140/175/83
f 41/332/149 175/195/149 155/196/149 29/333/149
f 6/173/83 138/172/83 140/175/83 63/174/83
f 29/333/150 155/196/150 166/51/150 36/50/150
f 40/58/151 174/57/151 175/195/151 41/332/151
f 21/56/152 40/58/152 41/332/152 20/22/152
f 7/23/153 29/333/153 36/50/153 17/49/153
f 20/22/154 41/332/154 29/333/154 7/23/154
f 302/328/83 304/331/83 299/326/83 297/327/83
f 200/334/155 187/335/155 155/196/155 175/195/155
f 149/329/83 224/330/83 304/331/83 302/328/83
f 187/335/156 195/222/156 166/51/156 155/196/156
f 199/228/157 200/334/157 175/195/157 174/57/157
f 177/226/158 176/194/158 200/334/158 199/228/158
f 152/193/159 169/221/159 195/222/159 187/335/159
f 176/194/160 152/193/160 187/335/160 200/334/160
